<?xml version="1.0" encoding="UTF-8"?>
<svg version="1.1" xmlns="http://www.w3.org/2000/svg" width="225" height="225">
<path d="M0 0 C74.25 0 148.5 0 225 0 C225 74.25 225 148.5 225 225 C150.75 225 76.5 225 0 225 C0 150.75 0 76.5 0 0 Z " fill="#F08705" transform="translate(0,0)"/>
<path d="M0 0 C0.41941392 0.36916346 0.83882784 0.73832691 1.27095127 1.11867714 C4.88825045 4.26587459 8.57620087 7.23336645 12.44022369 10.07080841 C23.21460521 17.98427755 33.44959592 26.49402517 43.4375 35.375 C44.28293365 36.1259494 45.12836731 36.8768988 45.99942017 37.65060425 C68.51269649 57.93105656 82.0851635 76.78143971 83.75390625 107.6953125 C84.9118358 135.12547603 82.49710737 162.80644371 79 190 C59.58072995 190.16364921 40.16160017 190.28702333 20.74178314 190.3626852 C11.72443059 190.39875299 2.70750692 190.4479106 -6.30957031 190.52807617 C-14.17049943 190.59792969 -22.0311179 190.64302715 -29.89234877 190.65861946 C-34.05354751 190.6677317 -38.21385768 190.68908782 -42.37477112 190.7401104 C-46.29515075 190.78779185 -50.21427996 190.80224797 -54.13492203 190.79175377 C-55.57003207 190.79367217 -57.00518594 190.80749934 -58.4400444 190.83443832 C-70.60867617 191.05160361 -70.60867617 191.05160361 -75.67700195 186.68359375 C-76.81373544 185.482589 -77.92626564 184.25764461 -79 183 C-79.71837036 182.32131363 -80.43674072 181.64262726 -81.17687988 180.94337463 C-81.72759155 180.39044235 -82.27830322 179.83751007 -82.84570312 179.26782227 C-83.80579285 178.30761925 -83.80579285 178.30761925 -84.78527832 177.32801819 C-85.44394897 176.66418625 -86.10261963 176.00035431 -86.78125 175.31640625 C-87.48020386 174.61603745 -88.17915771 173.91566864 -88.89929199 173.19407654 C-91.10191539 170.98591542 -93.30101081 168.77427963 -95.5 166.5625 C-97.00497508 165.05250186 -98.51018135 163.5427341 -100.015625 162.03320312 C-103.67975829 158.35812359 -107.3407348 154.67992644 -111 151 C-110.505 150.01 -110.505 150.01 -110 149 C-109.00188042 149.00666183 -109.00188042 149.00666183 -107.9835968 149.01345825 C-101.0568761 149.05771137 -94.13019557 149.08787475 -87.20336914 149.10986328 C-84.61839161 149.11991967 -82.03342545 149.13356649 -79.44848633 149.15087891 C-75.73255608 149.17514271 -72.01677627 149.18648684 -68.30078125 149.1953125 C-66.56771477 149.21079636 -66.56771477 149.21079636 -64.79963684 149.22659302 C-63.71889389 149.22674408 -62.63815094 149.22689514 -61.5246582 149.22705078 C-60.10235649 149.23371262 -60.10235649 149.23371262 -58.65132141 149.24050903 C-55.68772667 148.97167278 -53.60339567 148.4510589 -51 147 C-49.82311315 144.28123389 -49.85703623 141.52655164 -49.80712891 138.58618164 C-49.79106598 137.72170914 -49.77500305 136.85723663 -49.75845337 135.96656799 C-49.71378519 132.03574671 -49.67297644 128.10508791 -49.64990234 124.17407227 C-49.6333142 122.10136713 -49.60598683 120.02871986 -49.56787109 117.95629883 C-49.51312067 114.96145084 -49.49123547 111.96793715 -49.4765625 108.97265625 C-49.45389313 108.04856461 -49.43122375 107.12447296 -49.40786743 106.17237854 C-49.42285225 101.6106145 -49.50720697 99.64145998 -52.36547852 95.92089844 C-55.24914614 93.81834104 -56.78626995 93.3285492 -60.3125 93.1875 C-61.63701172 93.11595703 -61.63701172 93.11595703 -62.98828125 93.04296875 C-63.98408203 93.02169922 -63.98408203 93.02169922 -65 93 C-63.51526462 89.00178002 -61.62801547 85.40555743 -59.515625 81.703125 C-59.17754822 81.11005554 -58.83947144 80.51698608 -58.4911499 79.90594482 C-57.77661248 78.65448744 -57.06045551 77.40395353 -56.34277344 76.15429688 C-55.26276094 74.27223756 -54.18962438 72.38638392 -53.1171875 70.5 C-51.73974998 68.08386068 -50.34580984 65.6786895 -48.93359375 63.28271484 C-47.73603403 61.24958504 -46.55755066 59.20492289 -45.41015625 57.14306641 C-41.96286157 51.31478167 -41.96286157 51.31478167 -37.34375 49.8046875 C-36.0753125 49.82789063 -34.806875 49.85109375 -33.5 49.875 C-32.2315625 49.85179687 -30.963125 49.82859375 -29.65625 49.8046875 C-24.18024834 51.59491881 -22.69569063 55.11456002 -20 60 C-19.47067871 60.91265625 -18.94135742 61.8253125 -18.39599609 62.765625 C-16.71496896 65.68292098 -15.0719781 68.61889928 -13.4375 71.5625 C-10.05806641 77.62967025 -6.69037579 83.65522849 -2.86743164 89.45678711 C-2 91 -2 91 -2 93 C-2.66386719 93.01417969 -3.32773438 93.02835937 -4.01171875 93.04296875 C-5.33623047 93.11451172 -5.33623047 93.11451172 -6.6875 93.1875 C-7.55761719 93.22230469 -8.42773438 93.25710937 -9.32421875 93.29296875 C-13.19959562 94.31697344 -14.55634165 95.81913313 -17 99 C-17.69504797 102.33099139 -17.6066232 105.58168414 -17.5234375 108.97265625 C-17.51873444 109.93272079 -17.51403137 110.89278534 -17.50918579 111.88194275 C-17.48787679 114.94286465 -17.43128759 118.00204285 -17.375 121.0625 C-17.35848845 123.12563469 -17.34414152 125.18878791 -17.33203125 127.25195312 C-17.29811376 131.03025769 -17.26306746 134.80836307 -17.19287109 138.58618164 C-17.18001068 139.34387344 -17.16715027 140.10156525 -17.15390015 140.88221741 C-16.94962564 144.02642087 -16.94962564 144.02642087 -16 147 C-12.52823665 148.92454581 -9.47712076 149.25848104 -5.5546875 149.29052734 C-3.95778076 149.3096669 -3.95778076 149.3096669 -2.32861328 149.32919312 C-1.1889209 149.33141876 -0.04922852 149.33364441 1.125 149.3359375 C2.30465332 149.3425943 3.48430664 149.3492511 4.69970703 149.35610962 C7.19106488 149.36622386 9.68244976 149.37092702 12.17382812 149.37060547 C15.98612942 149.37498407 19.79727802 149.41133395 23.609375 149.44921875 C26.03124604 149.455086 28.45312258 149.459056 30.875 149.4609375 C32.58453857 149.48249405 32.58453857 149.48249405 34.32861328 149.50448608 C40.5662327 149.51260608 40.5662327 149.51260608 46.1953125 147.09619141 C48.71740464 144.16671588 49.12842272 142.57322464 49.17700195 138.79736328 C49.18983719 137.92951202 49.20267242 137.06166077 49.21589661 136.16751099 C49.22328354 135.22793549 49.23067047 134.28835999 49.23828125 133.3203125 C49.25038887 131.87384842 49.25038887 131.87384842 49.26274109 130.39816284 C49.2765848 128.35546672 49.28730567 126.31274744 49.29516602 124.27001953 C49.31239301 121.14441219 49.35627821 118.01985859 49.40039062 114.89453125 C49.41051617 112.91146612 49.41903271 110.92839199 49.42578125 108.9453125 C49.45204338 107.54202194 49.45204338 107.54202194 49.47883606 106.11038208 C49.52263216 100.90665925 49.52263216 100.90665925 47.09838867 96.44091797 C43.33502046 93.85669468 41.36600912 93.99569095 36.8125 94.28125 C17.2428291 95.0257415 17.2428291 95.0257415 11.87939453 91.67529297 C8.50854711 87.97993298 6.9141849 83.4138278 5.17724609 78.7890625 C2.82084688 73.20641949 -0.5051493 68.11877 -3.625 62.9375 C-4.84977195 60.84444412 -6.07141163 58.74955037 -7.2890625 56.65234375 C-7.81193848 55.75507568 -8.33481445 54.85780762 -8.87353516 53.93334961 C-9.24526855 53.29534424 -9.61700195 52.65733887 -10 52 C-8.1625556 50.77503707 -6.29237027 49.59564016 -4.375 48.5 C-1.8942773 47.21973738 -1.8942773 47.21973738 -1 45 C-0.88232528 43.5505207 -0.82310732 42.09606004 -0.79467773 40.64208984 C-0.77473251 39.74130707 -0.75478729 38.84052429 -0.73423767 37.91244507 C-0.71752518 36.93844757 -0.70081268 35.96445007 -0.68359375 34.9609375 C-0.6524221 33.46694931 -0.6524221 33.46694931 -0.62062073 31.94277954 C-0.55510958 28.75359146 -0.49623296 25.56431942 -0.4375 22.375 C-0.39431627 20.21613707 -0.35070203 18.0572827 -0.30664062 15.8984375 C-0.19942662 10.59904699 -0.09804356 5.29956714 0 0 Z " fill="#DF6B0C" transform="translate(146,35)"/>
<path d="M0 0 C1.62727776 -0.01925285 1.62727776 -0.01925285 3.28742981 -0.03889465 C4.46447983 -0.04628159 5.64152985 -0.05366852 6.85424805 -0.0612793 C8.06034225 -0.06935104 9.26643646 -0.07742279 10.50907898 -0.08573914 C13.06544554 -0.09958904 15.62183066 -0.11030712 18.17822266 -0.11816406 C22.08946734 -0.1353814 25.99986802 -0.17926181 29.91088867 -0.22338867 C32.39200223 -0.23351485 34.873123 -0.24203118 37.35424805 -0.2487793 C38.52522537 -0.26628738 39.6962027 -0.28379547 40.90266418 -0.30183411 C49.03051096 -0.2801048 49.03051096 -0.2801048 53.01904297 2.07861328 C55.53390496 5.03595886 55.93374211 6.65955161 55.99633789 10.45556641 C56.01240082 11.34021072 56.02846375 12.22485504 56.04501343 13.13630676 C56.08946395 17.18396248 56.1305282 21.23145417 56.15356445 25.27929688 C56.17012521 27.41417338 56.19741667 29.54899442 56.2355957 31.68359375 C56.29036013 34.76111626 56.31223792 37.83733906 56.3269043 40.9152832 C56.34957367 41.86752274 56.37224304 42.81976227 56.39559937 43.80085754 C56.38110699 48.34734052 56.33238665 50.47809235 53.52075195 54.19335938 C51.30972051 55.8074322 49.33129253 57.14714703 46.8034668 58.17700195 C47.2159668 58.89130371 47.6284668 59.60560547 48.0534668 60.34155273 C49.27943158 62.46475681 50.50338335 64.58912391 51.72583008 66.71435547 C53.11262674 69.11902506 54.51872543 71.51088701 55.93969727 73.89550781 C61.92123118 83.9962927 61.92123118 83.9962927 63.5612793 88.9855957 C65.08349301 93.16515963 66.53681513 95.18230774 69.8034668 98.17700195 C73.01977105 99.09620214 73.01977105 99.09620214 76.55737305 99.12231445 C77.84562988 99.18604248 79.13388672 99.24977051 80.46118164 99.31542969 C85.54586415 99.42214829 90.62364621 99.24755636 95.70068359 98.96679688 C99.268522 99.20850817 100.97766797 100.02628102 103.8034668 102.17700195 C105.85952075 105.26108288 106.06071499 105.96510507 106.10986328 109.46142578 C106.12585068 110.32274612 106.14183807 111.18406647 106.15830994 112.07148743 C106.16367264 112.99962753 106.16903534 113.92776764 106.17456055 114.8840332 C106.18358902 115.8421843 106.19261749 116.80033539 106.20191956 117.78752136 C106.21643101 119.81583529 106.22531101 121.84419612 106.22900391 123.87255859 C106.24088307 126.96768715 106.29004532 130.06081091 106.34057617 133.15551758 C106.35004252 135.12751307 106.35727654 137.09952079 106.36206055 139.0715332 C106.38159286 139.99360062 106.40112518 140.91566803 106.42124939 141.86567688 C106.39052421 146.26777783 106.22235117 149.24686971 103.39355469 152.74609375 C99.89203812 156.03241673 98.37418231 156.30416518 93.69873047 156.33813477 C92.63389938 156.34774231 91.5690683 156.35734985 90.4719696 156.36724854 C89.31679337 156.37149841 88.16161713 156.37574829 86.97143555 156.38012695 C85.78753738 156.38582703 84.60363922 156.3915271 83.38386536 156.3973999 C80.8745717 156.40686017 78.36526557 156.41338794 75.85595703 156.41723633 C72.01727588 156.42693548 68.17913142 156.45794746 64.34057617 156.48950195 C61.90503248 156.49603245 59.46948496 156.50128274 57.03393555 156.50512695 C55.884832 156.51747375 54.73572845 156.52982056 53.55180359 156.5425415 C52.47751602 156.53954041 51.40322845 156.53653931 50.29638672 156.53344727 C49.35421799 156.5370929 48.41204926 156.54073853 47.44132996 156.54449463 C44.21718535 156.09532443 42.39195684 155.13703452 39.8034668 153.17700195 C37.90781072 150.37512739 37.54403062 148.10736668 37.49707031 144.76318359 C37.48108292 143.89871109 37.46509552 143.03423859 37.44862366 142.14356995 C37.44326096 141.21745407 37.43789825 140.2913382 37.43237305 139.3371582 C37.42334457 138.37805038 37.4143161 137.41894257 37.40501404 136.43077087 C37.39052018 134.40423704 37.38162695 132.37765651 37.37792969 130.35107422 C37.36602191 127.25383702 37.31681824 124.15858512 37.26635742 121.06176758 C37.25689415 119.09107416 37.24965866 117.12036853 37.24487305 115.1496582 C37.22534073 114.22556656 37.20580841 113.30147491 37.1856842 112.34938049 C37.21808894 107.72345076 37.27825806 105.82719864 40.27587891 102.11621094 C41.10998291 101.47627197 41.94408691 100.83633301 42.8034668 100.17700195 C43.1334668 99.84700195 43.4634668 99.51700195 43.8034668 99.17700195 C45.48955646 99.10494684 47.17847339 99.09314128 48.8659668 99.11450195 C50.24461914 99.12803711 50.24461914 99.12803711 51.65112305 99.1418457 C52.7165332 99.15924805 52.7165332 99.15924805 53.8034668 99.17700195 C52.81544185 97.45680263 51.82708713 95.73679273 50.83862305 94.0168457 C50.20827148 92.91904785 49.57791992 91.82125 48.9284668 90.69018555 C47.55182162 88.29778654 46.16440413 85.9121048 44.76831055 83.53100586 C38.83153317 73.38336118 38.83153317 73.38336118 36.33081055 68.1105957 C33.79781491 62.90712277 31.8170213 59.02880463 26.27612305 56.68481445 C21.67257193 56.08695067 19.07549344 56.33957114 14.8034668 58.17700195 C10.72975942 62.02485697 8.57919712 67.39072426 6.20629883 72.37182617 C3.48216416 77.81914732 0.28419043 83.00372767 -2.8215332 88.23950195 C-4.04473948 90.33347321 -5.26624533 92.42843925 -6.4855957 94.5246582 C-7.00847168 95.42192627 -7.53134766 96.31919434 -8.07006836 97.24365234 C-8.44180176 97.88165771 -8.81353516 98.51966309 -9.1965332 99.17700195 C-8.51018799 99.14872314 -7.82384277 99.12044434 -7.11669922 99.09130859 C-6.2162085 99.06931396 -5.31571777 99.04731934 -4.38793945 99.0246582 C-3.49534424 98.99637939 -2.60274902 98.96810059 -1.68310547 98.93896484 C0.8034668 99.17700195 0.8034668 99.17700195 3.8659668 101.61450195 C4.5053418 102.46012695 5.1447168 103.30575195 5.8034668 104.17700195 C6.1334668 104.50700195 6.4634668 104.83700195 6.8034668 105.17700195 C6.90657029 106.53699623 6.94195559 107.9022332 6.94873047 109.26611328 C6.95511032 110.13404007 6.96149017 111.00196686 6.96806335 111.89619446 C6.96917618 112.84093124 6.970289 113.78566803 6.97143555 114.7590332 C6.97642815 116.20761971 6.97642815 116.20761971 6.98152161 117.68547058 C6.98659606 119.73415652 6.98892977 121.78285075 6.98876953 123.83154297 C6.99095025 126.96571541 7.00908456 130.09953276 7.02807617 133.23364258 C7.03101113 135.22127158 7.03299524 137.20890226 7.03393555 139.1965332 C7.04112106 140.1351973 7.04830658 141.07386139 7.05570984 142.04096985 C7.05263321 142.91835312 7.04955658 143.79573639 7.04638672 144.69970703 C7.04781174 145.46946365 7.04923676 146.23922028 7.05070496 147.03230286 C6.75608061 149.58805951 6.25450457 151.04329154 4.8034668 153.17700195 C1.29635176 155.82193043 -1.272618 156.55751775 -5.62597656 156.59692383 C-6.68735336 156.61283569 -7.74873016 156.62874756 -8.8422699 156.6451416 C-9.97882523 156.64534302 -11.11538055 156.64554443 -12.28637695 156.64575195 C-13.4636586 156.65336548 -14.64094025 156.660979 -15.85389709 156.66882324 C-18.34105307 156.67961802 -20.82825436 156.6824799 -23.31542969 156.67797852 C-27.11706232 156.67700629 -30.91667628 156.71863764 -34.71801758 156.76293945 C-37.13663317 156.76814661 -39.55525576 156.77083464 -41.97387695 156.77075195 C-43.10840805 156.78714722 -44.24293915 156.80354248 -45.41184998 156.82043457 C-54.20765856 156.74354733 -54.20765856 156.74354733 -57.89794922 153.76489258 C-60.72168402 150.58575409 -61.31989934 149.19923902 -61.35766602 145.08203125 C-61.37207733 143.81512703 -61.37207733 143.81512703 -61.38677979 142.52262878 C-61.39102966 141.60806412 -61.39527954 140.69349945 -61.3996582 139.7512207 C-61.40535828 138.81147903 -61.41105835 137.87173737 -61.41693115 136.90351868 C-61.42638794 134.91209033 -61.43291782 132.92064629 -61.43676758 130.92919922 C-61.44646097 127.88717182 -61.47747292 124.84582346 -61.5090332 121.80395508 C-61.51556445 119.8697143 -61.52081444 117.93546869 -61.5246582 116.0012207 C-61.537005 115.09272873 -61.54935181 114.18423676 -61.56207275 113.24821472 C-61.545095 108.41664732 -61.41276571 105.05692391 -58.1965332 101.17700195 C-54.47901044 98.69865344 -53.16846231 99.13777933 -48.7980957 99.5715332 C-35.02427072 100.89631434 -35.02427072 100.89631434 -22.69018555 96.18725586 C-18.4708073 90.8181776 -15.98625596 84.6357177 -13.51000977 78.31811523 C-11.43236271 73.34952656 -8.66813565 68.83746913 -5.8840332 64.23950195 C-4.96825637 62.66964311 -4.05517556 61.098206 -3.14575195 59.5246582 C-2.50250977 58.41993164 -1.85926758 57.31520508 -1.1965332 56.17700195 C-2.5577832 56.33168945 -2.5577832 56.33168945 -3.9465332 56.48950195 C-7.1965332 56.17700195 -7.1965332 56.17700195 -9.36645508 54.29223633 C-11.96972506 49.86084292 -11.77118369 46.07442556 -11.7277832 41.02075195 C-11.73161011 40.04086304 -11.73543701 39.06097412 -11.73937988 38.0513916 C-11.74209672 35.98371348 -11.73475156 33.91600086 -11.71801758 31.84838867 C-11.69660509 28.68761402 -11.71782741 25.52911235 -11.7434082 22.3684082 C-11.74076489 20.35668445 -11.73563983 18.3449621 -11.7277832 16.33325195 C-11.73588013 15.39042358 -11.74397705 14.44759521 -11.75231934 13.47619629 C-11.69123012 9.19116815 -11.59143481 6.81280567 -9.28833008 3.10473633 C-6.08587437 0.15345362 -4.26469422 0.04384385 0 0 Z " fill="#FEFDFC" transform="translate(90.196533203125,28.822998046875)"/>
<path d="M0 0 C74.25 0 148.5 0 225 0 C225 1.98 225 3.96 225 6 C224.51955545 5.35019857 224.03911091 4.70039715 223.54410744 4.03090477 C219.96559046 1.17425371 216.6794979 1.45125905 212.29428101 1.50552368 C211.40614358 1.50069485 210.51800615 1.49586602 209.60295546 1.49089086 C206.62091122 1.47960081 203.63972085 1.49695349 200.65771484 1.51416016 C198.52246366 1.5120148 196.38721361 1.50813786 194.25196838 1.50265503 C188.44842237 1.49294854 182.64518323 1.50828052 176.84167433 1.52856112 C170.77674669 1.54610305 164.71182894 1.54260762 158.6468811 1.5418396 C148.46310273 1.54371352 138.27944344 1.5610914 128.09570312 1.58837891 C116.30772035 1.6198475 104.51986796 1.63037458 92.73184621 1.6289078 C81.40704429 1.62768879 70.08228501 1.63788442 58.75749588 1.65449142 C53.93056531 1.6615676 49.10364983 1.66521941 44.27671432 1.66627884 C38.59847904 1.66828215 32.92035401 1.6804461 27.24215508 1.70061111 C25.15312436 1.70647184 23.06408096 1.70890969 20.97504234 1.70775604 C18.13382675 1.70678044 15.2929239 1.71802823 12.45175171 1.73257446 C11.61597009 1.72947726 10.78018847 1.72638005 9.91908014 1.723189 C5.48905269 1.57884575 5.48905269 1.57884575 2 4 C1.8021177 6.85363568 1.73081812 9.61034133 1.74603271 12.46520996 C1.74291273 13.35163854 1.73979275 14.23806712 1.73657823 15.15135717 C1.72856288 18.1393827 1.73493559 21.12720712 1.74121094 24.11523438 C1.73850264 26.25018941 1.73494263 28.38514351 1.73059082 30.52009583 C1.72144531 36.33193296 1.72501996 42.14369937 1.73134899 47.9555378 C1.73639783 54.02582114 1.73172066 60.09609826 1.72857666 66.16638184 C1.72493375 76.36207165 1.72974463 86.55773254 1.73925781 96.75341797 C1.75014297 108.55612109 1.74661762 120.35875513 1.735605 132.16145658 C1.72654138 142.27864789 1.72524231 152.39581835 1.73048234 162.51301241 C1.73360714 168.56273818 1.73399745 174.61243144 1.72740936 180.66215515 C1.72164995 186.34855587 1.72560695 192.03486715 1.73719788 197.72125816 C1.73985201 199.81351765 1.73906663 201.9057846 1.73467255 203.99804115 C1.72924525 206.84372721 1.73601676 209.68912273 1.74603271 212.53479004 C1.74157127 213.3719359 1.73710983 214.20908175 1.73251319 215.07159567 C1.57908925 219.5065248 1.57908925 219.5065248 4 223 C7.07643126 223.33320576 7.07643126 223.33320576 10.74462891 223.31884766 C11.78382225 223.33391609 11.78382225 223.33391609 12.8440094 223.34928894 C15.13818518 223.38022553 17.43224373 223.39718476 19.7265625 223.4140625 C21.31555192 223.43276577 22.90453133 223.45233854 24.49349976 223.4727478 C28.67901718 223.52416409 32.86456683 223.56373877 37.05023193 223.60089111 C41.32002803 223.64087143 45.58968895 223.69199093 49.859375 223.7421875 C58.23949113 223.83905915 66.61967393 223.92342772 75 224 C75 224.33 75 224.66 75 225 C50.25 225 25.5 225 0 225 C0 150.75 0 76.5 0 0 Z " fill="#F18E22" transform="translate(0,0)"/>
<path d="M0 0 C0.33 0 0.66 0 1 0 C1 36.96 1 73.92 1 112 C-48.5 112 -98 112 -149 112 C-149 111.67 -149 111.34 -149 111 C-148.24939867 110.99668985 -147.49879734 110.99337971 -146.72545052 110.98996925 C-128.48207141 110.90883454 -110.23877761 110.81677367 -91.99551582 110.71247292 C-83.17329781 110.66229929 -74.35108931 110.61585703 -65.52880859 110.578125 C-57.84148417 110.54523768 -50.15423258 110.50542473 -42.46698844 110.45720994 C-38.39468363 110.43191237 -34.32242734 110.41014085 -30.25006485 110.39665604 C-26.42023282 110.38386506 -22.59056691 110.36184317 -18.76082611 110.33261681 C-17.35230932 110.32351772 -15.94376577 110.31784539 -14.5352211 110.31578636 C-12.61785446 110.31248038 -10.70052433 110.29585705 -8.78323364 110.2784729 C-7.17101771 110.27017676 -7.17101771 110.27017676 -5.52623177 110.26171303 C-2.83041764 110.25073598 -2.83041764 110.25073598 -1 108 C-0.68669962 105.99460256 -0.68669962 105.99460256 -0.7215271 103.65939331 C-0.71036362 102.74791534 -0.69920013 101.83643738 -0.68769836 100.89733887 C-0.68445808 99.39330505 -0.68445808 99.39330505 -0.68115234 97.85888672 C-0.67110672 96.80520905 -0.6610611 95.75153137 -0.65071106 94.66592407 C-0.61973062 91.17051762 -0.60280266 87.67518826 -0.5859375 84.1796875 C-0.56723781 81.76115244 -0.54766532 79.34262399 -0.5272522 76.92410278 C-0.47579837 70.54876591 -0.43624367 64.17340785 -0.39910889 57.79797363 C-0.35915214 51.29625146 -0.30802191 44.7946184 -0.2578125 38.29296875 C-0.16089639 25.52870945 -0.07616279 12.76439913 0 0 Z " fill="#E07118" transform="translate(224,113)"/>
<path d="M0 0 C74.25 0 148.5 0 225 0 C225 1.98 225 3.96 225 6 C224.51927788 5.35047615 224.03855576 4.7009523 223.5432663 4.03174591 C219.96970898 1.17692868 216.68884101 1.44496404 212.30773926 1.49206543 C211.42101296 1.48582547 210.53428666 1.4795855 209.62068987 1.47315645 C206.64334211 1.45717558 203.66680726 1.46985067 200.68945312 1.48242188 C198.55744447 1.47700303 196.42543956 1.46988171 194.29344177 1.46118164 C188.49804729 1.44291725 182.70293704 1.45002878 176.90753746 1.46269798 C170.84887285 1.47280947 164.79023293 1.46343746 158.73156738 1.45715332 C148.55618917 1.44987152 138.38092701 1.45947864 128.20556641 1.47851562 C116.43346434 1.5002853 104.66163936 1.49323431 92.88954401 1.47121 C82.79094648 1.45307122 72.69243247 1.45049025 62.59382391 1.46096468 C56.5585612 1.46720796 50.52342883 1.46801227 44.48817444 1.45481873 C38.81477418 1.44328306 33.14173193 1.4512444 27.46837044 1.47439575 C25.38340411 1.47969503 23.29840777 1.47814834 21.21345329 1.46934509 C18.37264591 1.45845427 15.532994 1.47207497 12.69226074 1.49206543 C11.86230481 1.48314254 11.03234887 1.47421966 10.17724276 1.46502638 C6.43606183 1.51628001 4.4288532 1.6574009 1.4567337 4.03174591 C0.73565052 5.00603168 0.73565052 5.00603168 0 6 C0 4.02 0 2.04 0 0 Z " fill="#F18E22" transform="translate(0,0)"/>
<path d="M0 0 C0.33 0 0.66 0 1 0 C1 36.96 1 73.92 1 112 C-0.98 112 -2.96 112 -5 112 C-4.35125916 111.55384338 -3.70251831 111.10768677 -3.03411865 110.64801025 C0.09820137 106.57036438 -0.42878536 102.64186005 -0.45410156 97.63183594 C-0.44376389 96.57786621 -0.43342621 95.52389648 -0.42277527 94.43798828 C-0.39327109 90.95329597 -0.39184644 87.46918258 -0.390625 83.984375 C-0.37564856 81.56869392 -0.35892256 79.1530231 -0.34051514 76.73736572 C-0.29676957 70.37845396 -0.27682639 64.01968034 -0.26177979 57.66064453 C-0.24223481 51.17211718 -0.20026184 44.68373958 -0.16015625 38.1953125 C-0.08477594 25.46359233 -0.03377022 12.73189503 0 0 Z " fill="#E07219" transform="translate(224,113)"/>
<path d="M0 0 C0.51620911 0.81139938 1.03241821 1.62279877 1.56427002 2.45878601 C3.79853679 5.27411683 3.79853679 5.27411683 7.17645264 5.63923645 C8.42887756 5.64589828 9.68130249 5.65256012 10.97167969 5.65942383 C11.6647673 5.66990753 12.35785492 5.68039124 13.07194519 5.69119263 C15.35571168 5.71992273 17.63796033 5.71365444 19.921875 5.70703125 C21.50801492 5.72014771 23.09413813 5.73545178 24.68023682 5.75285339 C28.84943441 5.79272325 33.01819528 5.80289504 37.18756104 5.80688477 C41.44418605 5.81621258 45.70055405 5.85362382 49.95703125 5.88867188 C58.30469219 5.95326781 66.65210082 5.9864913 75 6 C75 6.33 75 6.66 75 7 C50.25 7 25.5 7 0 7 C0 4.69 0 2.38 0 0 Z " fill="#F18F23" transform="translate(0,218)"/>
<path d="M0 0 C0.61875 0.78375 1.2375 1.5675 1.875 2.375 C3.89858661 4.96837647 3.89858661 4.96837647 6 7 C4.02 7 2.04 7 0 7 C0 4.69 0 2.38 0 0 Z " fill="#FEF9F5" transform="translate(0,218)"/>
<path d="M0 0 C2.31 0 4.62 0 7 0 C7 1.98 7 3.96 7 6 C6.401875 5.38125 5.80375 4.7625 5.1875 4.125 C2.99188856 1.86323046 2.99188856 1.86323046 0 0 Z " fill="#FEF9F5" transform="translate(218,0)"/>
<path d="M0 0 C0.33 0 0.66 0 1 0 C1 1.98 1 3.96 1 6 C-0.98 6 -2.96 6 -5 6 C-3.35830472 3.97945196 -1.69088222 1.97956942 0 0 Z " fill="#FEFAF8" transform="translate(224,219)"/>
<path d="M0 0 C1.98 0 3.96 0 6 0 C4.35830472 2.02054804 2.69088222 4.02043058 1 6 C0.67 6 0.34 6 0 6 C0 4.02 0 2.04 0 0 Z " fill="#FEFCFA" transform="translate(0,0)"/>
</svg>
