<?xml version="1.0" encoding="UTF-8"?>
<svg version="1.1" xmlns="http://www.w3.org/2000/svg" width="225" height="225">
<path d="M0 0 C7.72411085 5.20928406 12.2554446 12.00051213 14.265625 21.03515625 C16.0235866 36.77542357 11.57236079 51.41447031 5.6875 65.8125 C5.40213379 66.53308594 5.11676758 67.25367187 4.82275391 67.99609375 C1.25228848 76.97135383 -3.04626289 85.26150231 -8.23828125 93.40625 C-10.32646257 96.63527784 -10.32646257 96.63527784 -11.48046875 99.65625 C-13.60574109 104.62800622 -16.45450099 107.25442673 -21.3515625 109.421875 C-22.7742041 110.05536865 -22.7742041 110.05536865 -24.22558594 110.70166016 C-28.55150074 112.50662065 -32.90830379 114.20830703 -37.3125 115.8125 C-33.50580846 115.8125 -30.88724196 115.22057719 -27.3125 114.15234375 C-25.01128405 113.76131682 -23.53817792 114.19377313 -21.3125 114.8125 C-24.47771968 119.14323048 -27.65001646 123.46863001 -30.82861328 127.78955078 C-32.18241877 129.6351632 -33.5277697 131.48659835 -34.87109375 133.33984375 C-35.63550781 134.38269531 -36.39992187 135.42554688 -37.1875 136.5 C-37.86554688 137.43199219 -38.54359375 138.36398438 -39.2421875 139.32421875 C-42.58558169 143.34260006 -46.68637754 146.16233957 -51 149.0625 C-51.76699219 149.58328125 -52.53398437 150.1040625 -53.32421875 150.640625 C-55.3125 151.8125 -55.3125 151.8125 -57.3125 151.8125 C-57.3125 152.4725 -57.3125 153.1325 -57.3125 153.8125 C-59.8125 156.3125 -59.8125 156.3125 -62.3125 158.8125 C-64.80670598 162.03654466 -67.05227861 165.42216792 -69.3125 168.8125 C-68.80711203 161.13338083 -67.33011814 153.93317925 -65.375 146.5 C-64.91528809 144.75033936 -64.91528809 144.75033936 -64.44628906 142.96533203 C-53.32240794 101.75865491 -35.40631688 61.14237572 -11.3125 25.8125 C-49.63138363 69.59386279 -73.40914636 131.0016331 -73.55273438 189.17871094 C-73.56242413 191.5439799 -73.59353135 193.90837178 -73.625 196.2734375 C-73.68976469 205.88120363 -72.80896441 214.47805765 -70.3125 223.8125 C-71.6325 223.4825 -72.9525 223.1525 -74.3125 222.8125 C-74.82188345 220.31409546 -75.32013114 217.81426612 -75.8125 215.3125 C-75.95558594 214.61640625 -76.09867187 213.9203125 -76.24609375 213.203125 C-76.38144531 212.50703125 -76.51679687 211.8109375 -76.65625 211.09375 C-76.84477539 210.15112305 -76.84477539 210.15112305 -77.03710938 209.18945312 C-77.43841969 205.72566124 -77.3280822 202.29926662 -77.3125 198.8125 C-78.52248657 198.82360306 -79.73247314 198.83470612 -80.97912598 198.84614563 C-92.3962791 198.94761604 -103.81334043 199.02251095 -115.23084259 199.07156086 C-121.10037568 199.09762599 -126.96954401 199.13296858 -132.83886719 199.18969727 C-138.5058296 199.24412571 -144.17244171 199.27394373 -149.83964539 199.28688622 C-151.9989727 199.29610655 -154.15828139 199.31411189 -156.31745911 199.34115028 C-159.34812464 199.37758379 -162.37735293 199.38243926 -165.40820312 199.38012695 C-166.29581329 199.39810333 -167.18342346 199.41607971 -168.09793091 199.43460083 C-174.20859768 199.38433592 -178.75867336 198.02920222 -183.3125 193.8125 C-186.72797835 189.50908982 -187.81423692 186.67629077 -187.83821106 181.20466614 C-187.85356903 179.89129272 -187.868927 178.57791931 -187.88475037 177.2247467 C-187.88163231 175.78109655 -187.87812504 174.3374472 -187.87426758 172.89379883 C-187.88464642 171.36397079 -187.89675599 169.83415366 -187.91046143 168.30435181 C-187.94257604 164.15734934 -187.95011 160.01062848 -187.95293641 155.86351609 C-187.95980294 151.51372975 -187.98837134 147.16408348 -188.014328 142.81437683 C-188.05486387 135.50508379 -188.08069857 128.19586127 -188.09643555 120.88647461 C-188.11663737 111.5294713 -188.15979009 102.17272723 -188.21072865 92.81584644 C-188.25458622 84.7471471 -188.28904853 76.67841169 -188.32139373 68.60965896 C-188.33199208 66.02906875 -188.34362157 63.44848448 -188.35529518 60.86789894 C-188.37300779 56.79592 -188.38487239 52.72396096 -188.39237976 48.65195084 C-188.39586241 47.16494546 -188.40105316 45.67794285 -188.40816307 44.19095039 C-188.52152892 19.56984776 -188.52152892 19.56984776 -183.3125 13.8125 C-175.78758351 6.28758351 -164.9157316 7.80222443 -154.92584229 7.77285767 C-148.46889337 7.78105444 -142.0124263 7.832519 -135.55577469 7.89016151 C-131.21710481 7.92804842 -126.87842268 7.95212175 -122.53964233 7.97319031 C-121.80254835 7.9768277 -121.06545436 7.98046508 -120.30602419 7.9842127 C-118.80097595 7.99161549 -117.29592755 7.99898801 -115.79087901 8.00633085 C-105.71504897 8.0560534 -95.63947612 8.11486926 -85.56396484 8.21020508 C-78.72985818 8.27476533 -71.89598277 8.31782441 -65.06159151 8.33636063 C-61.45784693 8.34699187 -57.85491086 8.36839353 -54.2514534 8.41631508 C-50.2384693 8.46951409 -46.22671522 8.47546622 -42.21337891 8.4777832 C-41.03500458 8.5009259 -39.85663025 8.5240686 -38.64254761 8.5479126 C-30.73169773 8.49904938 -26.44386984 6.68943551 -20.3125 1.8125 C-13.66136006 -1.81539451 -7.15249232 -2.56410102 0 0 Z " fill="#45A3DD" transform="translate(199.3125,1.1875)"/>
<path d="M0 0 C7.72411085 5.20928406 12.2554446 12.00051213 14.265625 21.03515625 C16.0235866 36.77542357 11.57236079 51.41447031 5.6875 65.8125 C5.40213379 66.53308594 5.11676758 67.25367187 4.82275391 67.99609375 C1.25228848 76.97135383 -3.04626289 85.26150231 -8.23828125 93.40625 C-10.32646257 96.63527784 -10.32646257 96.63527784 -11.48046875 99.65625 C-13.60574109 104.62800622 -16.45450099 107.25442673 -21.3515625 109.421875 C-22.29999023 109.8442041 -23.24841797 110.2665332 -24.22558594 110.70166016 C-28.55150074 112.50662065 -32.90830379 114.20830703 -37.3125 115.8125 C-33.50580846 115.8125 -30.88724196 115.22057719 -27.3125 114.15234375 C-25.01128405 113.76131682 -23.53817792 114.19377313 -21.3125 114.8125 C-24.47771968 119.14323048 -27.65001646 123.46863001 -30.82861328 127.78955078 C-32.18241877 129.6351632 -33.5277697 131.48659835 -34.87109375 133.33984375 C-36.01771484 134.90412109 -36.01771484 134.90412109 -37.1875 136.5 C-37.86554688 137.43199219 -38.54359375 138.36398438 -39.2421875 139.32421875 C-42.58558169 143.34260006 -46.68637754 146.16233957 -51 149.0625 C-52.15048828 149.84367187 -52.15048828 149.84367187 -53.32421875 150.640625 C-55.3125 151.8125 -55.3125 151.8125 -57.3125 151.8125 C-57.3125 152.4725 -57.3125 153.1325 -57.3125 153.8125 C-58.97916667 155.47916667 -60.64583333 157.14583333 -62.3125 158.8125 C-64.80670598 162.03654466 -67.05227861 165.42216792 -69.3125 168.8125 C-68.80711203 161.13338083 -67.33011814 153.93317925 -65.375 146.5 C-65.06852539 145.33355957 -64.76205078 144.16711914 -64.44628906 142.96533203 C-53.32240794 101.75865491 -35.40631688 61.14237572 -11.3125 25.8125 C-49.63138363 69.59386279 -73.40914636 131.0016331 -73.55273438 189.17871094 C-73.56242413 191.5439799 -73.59353135 193.90837178 -73.625 196.2734375 C-73.68976469 205.88120363 -72.80896441 214.47805765 -70.3125 223.8125 C-71.6325 223.4825 -72.9525 223.1525 -74.3125 222.8125 C-77.17106374 209.93997396 -77.96873481 197.38128098 -78.39648438 184.23046875 C-79.19245311 160.86956162 -79.19245311 160.86956162 -86.3125 138.8125 C-86.48046875 136.7890625 -86.48046875 136.7890625 -86.5 134.4375 C-86.51417969 133.66664063 -86.52835937 132.89578125 -86.54296875 132.1015625 C-86.29051607 129.59415112 -85.56443467 127.97988098 -84.3125 125.8125 C-80.86447024 128.98831688 -78.89253686 131.41940687 -77.3125 135.8125 C-78.16020456 133.62966075 -78.99057547 131.44253921 -79.8125 129.25 C-80.2765625 128.03183594 -80.740625 126.81367188 -81.21875 125.55859375 C-83.01094584 119.42032299 -82.62089638 114.72776573 -80.3125 108.8125 C-79.6525 108.8125 -78.9925 108.8125 -78.3125 108.8125 C-76.6625 111.7825 -75.0125 114.7525 -73.3125 117.8125 C-73.61285156 117.09707031 -73.91320312 116.38164063 -74.22265625 115.64453125 C-81.15252729 97.48592 -72.86487518 80.54109978 -65.5 63.75 C-54.48185246 39.41836925 -41.13246434 13.16884418 -16.875 -0.0625 C-11.05248216 -1.90118985 -5.77236837 -2.0693396 0 0 Z " fill="#073E5A" transform="translate(199.3125,1.1875)"/>
<path d="M0 0 C1.36076861 0.0002825 2.72153738 0.00012292 4.08230591 -0.0004425 C7.75528228 -0.00072805 11.42822564 0.00512925 15.10119438 0.01213145 C18.94754746 0.01840559 22.79390139 0.01897199 26.64025879 0.02015686 C33.91443931 0.02325824 41.1886047 0.03145548 48.46277857 0.04150635 C56.74817316 0.05270463 65.03356849 0.05818728 73.31896877 0.06320179 C90.35393062 0.07363914 107.38887777 0.09121537 124.42382812 0.11352539 C124.42382812 1.10352539 124.42382812 2.09352539 124.42382812 3.11352539 C123.46476562 3.54665039 123.46476562 3.54665039 122.48632812 3.98852539 C120.27176733 4.9417599 120.27176733 4.9417599 119.42382812 7.11352539 C118.71722203 7.1116818 118.01061594 7.10983822 117.28259754 7.10793877 C100.08973892 7.06377111 82.89689472 7.03067435 65.70399189 7.00990105 C57.38963598 6.99958824 49.07531793 6.9855278 40.76098633 6.96264648 C33.51426343 6.94271277 26.26756796 6.92980899 19.02081841 6.9253484 C15.18368299 6.92274099 11.34662604 6.91661233 7.50951576 6.90206528 C3.89723655 6.88848166 0.28506806 6.88430432 -3.32723427 6.88731003 C-5.28364092 6.88649823 -7.24003555 6.87574065 -9.19641113 6.86468506 C-10.948451 6.86880905 -10.948451 6.86880905 -12.73588562 6.87301636 C-13.74893611 6.87117277 -14.7619866 6.86932919 -15.80573559 6.86742973 C-18.78577973 7.13214469 -20.91199382 7.76420103 -23.57617188 9.11352539 C-27.39210412 14.32618774 -26.97027438 19.73711998 -26.88500977 25.9206543 C-26.88223526 26.99775162 -26.87946075 28.07484894 -26.87660217 29.18458557 C-26.86433942 32.73662786 -26.83126545 36.28817775 -26.79882812 39.84008789 C-26.78815051 42.310571 -26.77909429 44.78106161 -26.77159119 47.2515564 C-26.74881579 53.75039432 -26.7097716 60.24901756 -26.66558838 66.7477417 C-26.59538193 77.1569216 -26.54017221 87.56609454 -26.50323296 97.97544479 C-26.48650588 101.61392296 -26.45695191 105.25214748 -26.42652893 108.89053345 C-26.41607039 111.11541507 -26.40610979 113.34029912 -26.39672852 115.56518555 C-26.38482483 116.57931015 -26.37292114 117.59343475 -26.36065674 118.63829041 C-26.35907059 119.5690892 -26.35748444 120.499888 -26.35585022 121.45889282 C-26.35011018 122.26596491 -26.34437014 123.07303699 -26.33845615 123.90456581 C-26.60398108 126.37194084 -27.40964014 127.94477622 -28.57617188 130.11352539 C-28.77949922 132.40919132 -28.77949922 132.40919132 -28.63867188 134.73852539 C-28.47894965 138.91908095 -28.47894965 138.91908095 -29.57617188 141.11352539 C-29.7186965 143.19409108 -29.80249936 145.2788071 -29.85742188 147.36352539 C-29.89480469 148.61133789 -29.9321875 149.85915039 -29.97070312 151.14477539 C-30.00550781 152.45446289 -30.0403125 153.76415039 -30.07617188 155.11352539 C-30.14482655 157.6969755 -30.21753252 160.28032218 -30.29492188 162.86352539 C-30.32521484 164.01336914 -30.35550781 165.16321289 -30.38671875 166.34790039 C-30.57617188 169.11352539 -30.57617188 169.11352539 -31.57617188 171.11352539 C-30.91617187 171.11352539 -30.25617187 171.11352539 -29.57617188 171.11352539 C-30.23617188 172.76352539 -30.89617188 174.41352539 -31.57617188 176.11352539 C-31.90617187 176.11352539 -32.23617187 176.11352539 -32.57617188 176.11352539 C-32.7303951 156.35482658 -32.87841801 136.59609049 -33.01913548 116.83729076 C-33.08462177 107.66217321 -33.15210826 98.48707865 -33.22436523 89.31201172 C-33.28736664 81.31154785 -33.34655224 73.31106623 -33.40122741 65.31054097 C-33.43028708 61.07751092 -33.46120882 56.84451358 -33.49670601 52.61153221 C-33.53011726 48.62008811 -33.55839204 44.62863926 -33.58287811 40.63713074 C-33.59270016 39.17914778 -33.6043326 37.72117561 -33.61800194 36.26322365 C-33.84266146 11.93438231 -33.84266146 11.93438231 -28.57617188 6.11352539 C-20.5385065 -1.3733355 -10.39318861 -0.02961731 0 0 Z " fill="#127EC2" transform="translate(44.576171875,8.886474609375)"/>
<path d="M0 0 C0.99 0.33 1.98 0.66 3 1 C2.67 2.32 2.34 3.64 2 5 C5.80669154 5 8.42525804 4.40807719 12 3.33984375 C14.30121595 2.94881682 15.77432208 3.38127313 18 4 C14.83478032 8.33073048 11.66248354 12.65613001 8.48388672 16.97705078 C7.13008123 18.8226632 5.7847303 20.67409835 4.44140625 22.52734375 C3.67699219 23.57019531 2.91257813 24.61304688 2.125 25.6875 C1.44695312 26.61949219 0.76890625 27.55148438 0.0703125 28.51171875 C-3.27308169 32.53010006 -7.37387754 35.34983957 -11.6875 38.25 C-12.45449219 38.77078125 -13.22148437 39.2915625 -14.01171875 39.828125 C-16 41 -16 41 -18 41 C-18 41.66 -18 42.32 -18 43 C-19.66666667 44.66666667 -21.33333333 46.33333333 -23 48 C-25.49420598 51.22404466 -27.73977861 54.60966792 -30 58 C-29.51504624 49.99939596 -27.81478998 42.54090058 -25.75 34.8125 C-25.43861084 33.62809326 -25.12722168 32.44368652 -24.80639648 31.22338867 C-22.53204023 22.69177913 -20.01661756 14.29917366 -17 6 C-16.67 6 -16.34 6 -16 6 C-15.67 7.65 -15.34 9.3 -15 11 C-9.83697987 10.06768654 -9.83697987 10.06768654 -6.3125 6.5 C-5.6628125 5.2625 -5.6628125 5.2625 -5 4 C-2.875 2.8125 -2.875 2.8125 -1 2 C-0.67 1.34 -0.34 0.68 0 0 Z " fill="#0B405B" transform="translate(160,112)"/>
<path d="M0 0 C1.54077148 1.19360352 1.54077148 1.19360352 3 3 C2.94555664 5.25756836 2.94555664 5.25756836 2.34765625 7.90234375 C2.1377002 8.88187012 1.92774414 9.86139648 1.71142578 10.87060547 C1.47665527 11.90330566 1.24188477 12.93600586 1 14 C0.57823243 16.06302909 0.16030121 18.12684598 -0.25390625 20.19140625 C-0.90851578 23.38582214 -1.566049 26.57950004 -2.23242188 29.77148438 C-4.59370687 41.349628 -5.21112846 52.57346618 -5.24023438 64.36621094 C-5.24992413 66.7314799 -5.28103135 69.09587178 -5.3125 71.4609375 C-5.37726469 81.06870363 -4.49646441 89.66555765 -2 99 C-3.32 98.67 -4.64 98.34 -6 98 C-8.85856374 85.12747396 -9.65623481 72.56878098 -10.08398438 59.41796875 C-10.87995311 36.05706162 -10.87995311 36.05706162 -18 14 C-18.16796875 11.9765625 -18.16796875 11.9765625 -18.1875 9.625 C-18.20167969 8.85414063 -18.21585937 8.08328125 -18.23046875 7.2890625 C-17.97801607 4.78165112 -17.25193467 3.16738098 -16 1 C-12.17330957 4.42388092 -10.27721526 7.00724943 -9 12 C-8.68546875 11.38511719 -8.3709375 10.77023438 -8.046875 10.13671875 C-7.40492187 8.92435547 -7.40492187 8.92435547 -6.75 7.6875 C-6.12351562 6.48673828 -6.12351562 6.48673828 -5.484375 5.26171875 C-3.91343217 2.86809796 -2.3732963 1.56698409 0 0 Z " fill="#0C415D" transform="translate(131,126)"/>
<path d="M0 0 C3.59752316 3.63450468 3.4352972 7.3446675 3.41650391 12.17407227 C3.42508926 12.99579422 3.43367462 13.81751617 3.44252014 14.66413879 C3.46761542 17.38164822 3.47196503 20.09879141 3.4765625 22.81640625 C3.49088019 24.71248989 3.50663858 26.60856314 3.52377319 28.50462341 C3.5656683 33.50300009 3.59062324 38.50131257 3.61126709 43.49981689 C3.64702651 51.47480272 3.70852349 59.44962864 3.76975632 67.42445183 C3.78867917 70.19772705 3.80053385 72.97096012 3.81118774 75.74427795 C3.85173503 83.5006987 3.91101516 91.18414241 4.77035522 98.90342712 C5.63536833 106.8006807 5.63536833 106.8006807 3.9921875 109.90234375 C2.83477598 112.3493122 2.8252232 113.93933892 2.9375 116.625 C3.09722222 120.80555556 3.09722222 120.80555556 2 123 C1.85747537 125.08056569 1.77367251 127.16528171 1.71875 129.25 C1.68136719 130.4978125 1.64398438 131.745625 1.60546875 133.03125 C1.57066406 134.3409375 1.53585937 135.650625 1.5 137 C1.43134532 139.58345011 1.35863935 142.16679679 1.28125 144.75 C1.25095703 145.89984375 1.22066406 147.0496875 1.18945312 148.234375 C1 151 1 151 0 153 C0.66 153 1.32 153 2 153 C1.34 154.65 0.68 156.3 0 158 C-0.33 158 -0.66 158 -1 158 C-1.03070177 143.47917627 -1.05101259 128.95835178 -1.0625 114.4375 C-1.06335602 113.36309032 -1.06421204 112.28868065 -1.06509399 111.1817131 C-1.08518016 82.63809977 -1.00824453 54.10203297 -0.5 25.5625 C-0.48804218 24.89047924 -0.47608437 24.21845848 -0.46376419 23.52607346 C-0.32302104 15.68375712 -0.16987738 7.84173912 0 0 Z " fill="#0D7FCC" transform="translate(13,27)"/>
<path d="M0 0 C1.16665192 -0.00137466 2.33330383 -0.00274933 3.53530884 -0.00416565 C4.81132965 -0.00057037 6.08735046 0.0030249 7.40203857 0.00672913 C8.76221718 0.00701126 10.12239594 0.00685274 11.48257446 0.00628662 C15.17231592 0.00599969 18.86202487 0.01187965 22.55175877 0.01886058 C26.40881244 0.02511139 30.26586685 0.02569929 34.1229248 0.02688599 C41.42557124 0.0299942 48.7282027 0.03820073 56.03084254 0.04823548 C64.34516441 0.05941243 72.65948698 0.06491105 80.97381449 0.06993091 C98.0758744 0.08038376 115.17791975 0.09797335 132.27996826 0.12025452 C130.58023931 3.63440651 128.5631541 6.69729773 126.27996826 9.87025452 C125.57871826 10.85509827 124.87746826 11.83994202 124.15496826 12.85462952 C123.22684326 13.97611389 123.22684326 13.97611389 122.27996826 15.12025452 C121.61996826 15.12025452 120.95996826 15.12025452 120.27996826 15.12025452 C120.27996826 12.81025452 120.27996826 10.50025452 120.27996826 8.12025452 C120.93996826 8.12025452 121.59996826 8.12025452 122.27996826 8.12025452 C121.28996826 5.15025452 121.28996826 5.15025452 120.27996826 2.12025452 C104.1814686 2.07354362 88.0829909 2.03827015 71.98443985 2.01663017 C64.50968409 2.00631551 57.03497044 1.99225155 49.5602417 1.96937561 C43.04563041 1.94944755 36.5310496 1.93653946 30.01640868 1.93207753 C26.56662838 1.92946915 23.11693529 1.92333442 19.66718292 1.9087944 C15.81706603 1.89269841 11.96703465 1.89227446 8.11688232 1.89320374 C6.39921661 1.88241791 6.39921661 1.88241791 4.64685059 1.87141418 C3.59799683 1.87416351 2.54914307 1.87691284 1.46850586 1.87974548 C0.55777439 1.8779019 -0.35295708 1.87605831 -1.29128647 1.87415886 C-3.91439492 2.13994861 -5.53098608 2.6584161 -7.72003174 4.12025452 C-8.37558293 6.64758687 -8.37558293 6.64758687 -8.72003174 9.12025452 C-9.71003174 9.61525452 -9.71003174 9.61525452 -10.72003174 10.12025452 C-11.46754546 13.60280164 -11.46754546 13.60280164 -11.72003174 17.12025452 C-11.39003174 17.45025452 -11.06003174 17.78025452 -10.72003174 18.12025452 C-10.64731432 20.47339006 -10.63632306 22.8285912 -10.65753174 25.18275452 C-10.66655518 26.47310608 -10.67557861 27.76345764 -10.68487549 29.09291077 C-10.69647705 30.0919342 -10.70807861 31.09095764 -10.72003174 32.12025452 C-11.71003174 32.61525452 -11.71003174 32.61525452 -12.72003174 33.12025452 C-13.18526237 35.01558793 -13.18526237 35.01558793 -13.34503174 37.18275452 C-13.53065674 39.13181702 -13.53065674 39.13181702 -13.72003174 41.12025452 C-14.05003174 41.12025452 -14.38003174 41.12025452 -14.72003174 41.12025452 C-14.79452425 36.67286038 -14.84879431 32.22580262 -14.88482666 27.77796936 C-14.89985717 26.26683724 -14.92028738 24.75574834 -14.9463501 23.24476624 C-14.98298863 21.06513265 -14.99981512 18.88607877 -15.01300049 16.70619202 C-15.02871094 15.39698792 -15.04442139 14.08778381 -15.06060791 12.73890686 C-14.6049123 7.89710015 -13.16120537 4.56142815 -9.72003174 1.12025452 C-6.48619059 -0.00950373 -3.40364812 -0.00309423 0 0 Z " fill="#8CDBFE" transform="translate(31.72003173828125,14.879745483398438)"/>
<path d="M0 0 C0.59167969 0.19078125 1.18335937 0.3815625 1.79296875 0.578125 C0.47296875 0.908125 -0.84703125 1.238125 -2.20703125 1.578125 C-2.20703125 2.238125 -2.20703125 2.898125 -2.20703125 3.578125 C-2.97015625 3.784375 -3.73328125 3.990625 -4.51953125 4.203125 C-8.19127665 6.08169241 -8.71581896 7.74852536 -10.20703125 11.578125 C-10.63382352 14.65403513 -10.64465362 17.69436589 -10.6394043 20.79638672 C-10.64959595 21.70434494 -10.6597876 22.61230316 -10.67028809 23.54777527 C-10.70036639 26.53451754 -10.70967621 29.5209388 -10.71875 32.5078125 C-10.73560049 34.58433087 -10.75375124 36.66083906 -10.77314758 38.73733521 C-10.8206133 44.19198425 -10.85044496 49.64659203 -10.87658691 55.10137939 C-10.90640963 60.67183583 -10.95293413 66.24215012 -10.99804688 71.8125 C-11.08404107 82.7343006 -11.15140375 93.65613048 -11.20703125 104.578125 C-11.53703125 104.578125 -11.86703125 104.578125 -12.20703125 104.578125 C-12.21733871 103.50515167 -12.22764618 102.43217834 -12.23826599 101.32669067 C-12.33587574 91.23198043 -12.43859786 81.13733353 -12.54637051 71.04272652 C-12.6016165 65.85256224 -12.65503918 60.66239234 -12.7043457 55.47216797 C-12.75196452 50.46657161 -12.80430642 45.46104519 -12.859972 40.45553207 C-12.88040682 38.54251718 -12.89911801 36.62948309 -12.91610527 34.71643448 C-12.94012435 32.04412119 -12.97018227 29.37194079 -13.00170898 26.69970703 C-13.00746445 25.90273407 -13.01321991 25.10576111 -13.01914978 24.28463745 C-12.9885638 20.3012935 -12.9885638 20.3012935 -14.20703125 16.578125 C-14.53703125 36.708125 -14.86703125 56.838125 -15.20703125 77.578125 C-15.53703125 77.578125 -15.86703125 77.578125 -16.20703125 77.578125 C-18.24839213 9.45856379 -18.24839213 9.45856379 -12.20703125 2.578125 C-11.48515625 1.753125 -10.76328125 0.928125 -10.01953125 0.078125 C-6.21756195 -1.94959196 -4.0283796 -1.13031206 0 0 Z " fill="#348DC5" transform="translate(28.20703125,12.421875)"/>
<path d="M0 0 C1.36076861 0.0002825 2.72153738 0.00012292 4.08230591 -0.0004425 C7.75528228 -0.00072805 11.42822564 0.00512925 15.10119438 0.01213145 C18.94754746 0.01840559 22.79390139 0.01897199 26.64025879 0.02015686 C33.91443931 0.02325824 41.1886047 0.03145548 48.46277857 0.04150635 C56.74817316 0.05270463 65.03356849 0.05818728 73.31896877 0.06320179 C90.35393062 0.07363914 107.38887777 0.09121537 124.42382812 0.11352539 C124.42382812 1.10352539 124.42382812 2.09352539 124.42382812 3.11352539 C76.24382812 2.78352539 28.06382813 2.45352539 -21.57617188 2.11352539 C-21.57617188 1.78352539 -21.57617188 1.45352539 -21.57617188 1.11352539 C-14.37143646 -0.01332207 -7.28215603 -0.02075185 0 0 Z " fill="#80BCDA" transform="translate(44.576171875,8.886474609375)"/>
<path d="M0 0 C0.33 0 0.66 0 1 0 C1.33 10.56 1.66 21.12 2 32 C-10.70852747 32.04515438 -23.4170018 32.08186056 -36.12559128 32.10362434 C-42.02646613 32.11406896 -47.92728333 32.12824062 -53.828125 32.15087891 C-59.5209739 32.17258297 -65.21376728 32.18456352 -70.90665436 32.18975449 C-73.08040491 32.19345461 -75.25415237 32.20067988 -77.42787933 32.21146011 C-80.46858832 32.22594253 -83.50906685 32.22797929 -86.54980469 32.22705078 C-87.9027916 32.23783661 -87.9027916 32.23783661 -89.28311157 32.24884033 C-90.5282402 32.24471634 -90.5282402 32.24471634 -91.79852295 32.24050903 C-92.51752148 32.24235262 -93.23652 32.24419621 -93.97730637 32.24609566 C-96.32548951 31.96039857 -97.95443097 31.15967049 -100 30 C-100 28.02 -100 26.04 -100 24 C-98.39482903 24.08733576 -96.79078338 24.19552224 -95.1875 24.3125 C-94.29417969 24.37050781 -93.40085937 24.42851562 -92.48046875 24.48828125 C-89.69396 25.06313581 -88.75864246 25.8206856 -87 28 C-87.33 28.99 -87.66 29.98 -88 31 C-44.935 30.505 -44.935 30.505 -1 30 C-1 23.07 -1 16.14 -1 9 C-0.67 6.03 -0.34 3.06 0 0 Z " fill="#1E78B8" transform="translate(120,168)"/>
<path d="M0 0 C0.33 0 0.66 0 1 0 C1.18175781 0.61746094 1.36351563 1.23492187 1.55078125 1.87109375 C3.0744515 7.00469045 4.6872937 12.06715111 6.546875 17.08984375 C7 19 7 19 6 22 C5.74605469 21.38511719 5.49210937 20.77023438 5.23046875 20.13671875 C4.88628906 19.32847656 4.54210937 18.52023438 4.1875 17.6875 C3.68283203 16.48673828 3.68283203 16.48673828 3.16796875 15.26171875 C2.01799296 13.03484255 0.86373039 11.65012233 -1 10 C-3.15978174 16.47934521 -2.17188996 22.32473597 0.1328125 28.61328125 C2.73392927 35.77221075 4.43201241 42.36778079 4 50 C0.7089159 46.39042389 -0.54663921 43.87362847 -1 39 C-2.485 39.495 -2.485 39.495 -4 40 C-3.67 39.01 -3.34 38.02 -3 37 C-2.34 37 -1.68 37 -1 37 C-1.7734375 36.4740625 -1.7734375 36.4740625 -2.5625 35.9375 C-4 34 -4 34 -3.5625 30.75 C-3.376875 29.5125 -3.19125 28.275 -3 27 C-3.495 25.39125 -3.495 25.39125 -4 23.75 C-6.27353493 15.22424403 -4.04109853 7.61230188 0 0 Z " fill="#117BC2" transform="translate(116,118)"/>
<path d="M0 0 C2.67927341 4.01891012 2.15601248 6.24161923 2 11 C2.66 11 3.32 11 4 11 C4.36294314 13.1026706 4.71506972 15.20721057 5.0625 17.3125 C5.25972656 18.48425781 5.45695312 19.65601563 5.66015625 20.86328125 C6 24 6 24 5 27 C4.01 27 3.02 27 2 27 C2.66 27.99 3.32 28.98 4 30 C3.48275862 33.51724138 3.48275862 33.51724138 2 35 C1.60545777 36.84599688 1.25823134 38.70225822 0.9375 40.5625 C0.76089844 41.57441406 0.58429687 42.58632812 0.40234375 43.62890625 C0.26957031 44.41136719 0.13679688 45.19382813 0 46 C-0.33 46 -0.66 46 -1 46 C-1.02498214 41.21688199 -1.04299163 36.43380315 -1.05493164 31.65063477 C-1.05991672 30.02823219 -1.0667072 28.405834 -1.07543945 26.78344727 C-1.1225263 17.80093881 -1.09493092 8.93350061 0 0 Z " fill="#5CB5E9" transform="translate(18,45)"/>
<path d="M0 0 C0.66 0.33 1.32 0.66 2 1 C2 3.46459429 1.61187038 5.61370553 1 8 C0.01 8.495 0.01 8.495 -1 9 C-1.74751373 12.48254713 -1.74751373 12.48254713 -2 16 C-1.67 16.33 -1.34 16.66 -1 17 C-0.92728259 19.35313555 -0.91629132 21.70833668 -0.9375 24.0625 C-0.94652344 25.35285156 -0.95554687 26.64320312 -0.96484375 27.97265625 C-0.97644531 28.97167969 -0.98804688 29.97070312 -1 31 C-1.66 31.33 -2.32 31.66 -3 32 C-3.46523063 33.89533342 -3.46523063 33.89533342 -3.625 36.0625 C-3.810625 38.0115625 -3.810625 38.0115625 -4 40 C-4.33 40 -4.66 40 -5 40 C-5.07449251 35.55260587 -5.12876257 31.1055481 -5.16479492 26.65771484 C-5.17982543 25.14658273 -5.20025564 23.63549382 -5.22631836 22.12451172 C-5.26295689 19.94487813 -5.27978338 17.76582425 -5.29296875 15.5859375 C-5.3086792 14.2767334 -5.32438965 12.9675293 -5.34057617 11.61865234 C-4.88488056 6.77684564 -3.44117363 3.44117363 0 0 Z M3 1 C3.66 1.33 4.32 1.66 5 2 C4.01 2 3.02 2 2 2 C2.33 1.67 2.66 1.34 3 1 Z " fill="#7FD1FB" transform="translate(22,16)"/>
<path d="M0 0 C0.33 0 0.66 0 1 0 C1.86478781 2.76791945 2.71711674 5.53865626 3.5625 8.3125 C3.80935547 9.09818359 4.05621094 9.88386719 4.31054688 10.69335938 C4.53935547 11.45068359 4.76816406 12.20800781 5.00390625 12.98828125 C5.21861572 13.68477783 5.4333252 14.38127441 5.65454102 15.09887695 C6 17 6 17 5 20 C4.16180842 18.37750059 3.3295884 16.75191503 2.5 15.125 C2.0359375 14.22007813 1.571875 13.31515625 1.09375 12.3828125 C0 10 0 10 0 8 C-0.66 8 -1.32 8 -2 8 C-2.433125 9.8253125 -2.433125 9.8253125 -2.875 11.6875 C-4.4958282 18.08013709 -4.4958282 18.08013709 -6 21 C-6.99 21.33 -7.98 21.66 -9 22 C-9.125 14.375 -9.125 14.375 -8 11 C-7.65179959 9.33637583 -7.31595508 7.67004829 -7 6 C-6.34 6.66 -5.68 7.32 -5 8 C-4.319375 6.576875 -4.319375 6.576875 -3.625 5.125 C-2 2 -2 2 0 0 Z " fill="#3395D4" transform="translate(121,102)"/>
<path d="M0 0 C0.33 0 0.66 0 1 0 C1 29.7 1 59.4 1 90 C1.66 90 2.32 90 3 90 C2.34 91.65 1.68 93.3 1 95 C0.67 95 0.34 95 0 95 C0 63.65 0 32.3 0 0 Z " fill="#1D77B1" transform="translate(12,90)"/>
<path d="M0 0 C4.4008703 3.82180842 5.80805531 6.47371099 7 12 C5.35 13.65 3.7 15.3 2 17 C0 15.5625 0 15.5625 -2 13 C-2.76325829 8.16307245 -2.4312207 4.27894843 0 0 Z " fill="#023E5F" transform="translate(115,127)"/>
<path d="M0 0 C0.33 0 0.66 0 1 0 C1.01458252 0.89605957 1.02916504 1.79211914 1.04418945 2.71533203 C1.1060621 6.11155025 1.18034992 9.50706445 1.26245117 12.90283203 C1.29525027 14.35911196 1.32341429 15.81550534 1.34643555 17.27197266 C1.50788847 27.22709149 2.51933636 36.30921898 5 46 C3.68 45.67 2.36 45.34 1 45 C0.49061655 42.50159546 -0.00763114 40.00176612 -0.5 37.5 C-0.64308594 36.80390625 -0.78617187 36.1078125 -0.93359375 35.390625 C-1.88277373 30.50912797 -2.13440046 25.97281701 -2 21 C-1.67 21 -1.34 21 -1 21 C-0.67 14.07 -0.34 7.14 0 0 Z " fill="#7F95A2" transform="translate(124,179)"/>
<path d="M0 0 C0.99 0 1.98 0 3 0 C1.37940026 3.54506192 -0.72629052 6.59021257 -3 9.75 C-3.70125 10.73484375 -4.4025 11.7196875 -5.125 12.734375 C-5.74375 13.48203125 -6.3625 14.2296875 -7 15 C-7.66 15 -8.32 15 -9 15 C-9 12.69 -9 10.38 -9 8 C-8.34 8 -7.68 8 -7 8 C-7.66 6.02 -8.32 4.04 -9 2 C-12.3 2 -15.6 2 -19 2 C-19 1.67 -19 1.34 -19 1 C-15.04 1 -11.08 1 -7 1 C-7 1.66 -7 2.32 -7 3 C-3.20452079 2.03223902 -3.20452079 2.03223902 0 0 Z " fill="#94D6F7" transform="translate(161,15)"/>
<path d="M0 0 C2.50329643 3.77630383 2.16999636 7.48400113 1.9765625 11.828125 C1.95153656 12.57713074 1.92651062 13.32613647 1.90072632 14.09783936 C1.81877032 16.48237015 1.72208861 18.86604213 1.625 21.25 C1.56673536 22.86975696 1.50943262 24.48954883 1.453125 26.109375 C1.31322832 30.07340767 1.16012553 34.03673501 1 38 C0.67 38 0.34 38 0 38 C-1.01408851 33.80467456 -1.12909672 29.85611807 -1.1328125 25.546875 C-1.13376923 24.84604797 -1.13472595 24.14522095 -1.13571167 23.42315674 C-1.13638915 21.95072336 -1.13456512 20.47828693 -1.13037109 19.00585938 C-1.12498434 16.74342242 -1.13034709 14.48118109 -1.13671875 12.21875 C-1.13605852 10.78645789 -1.13477851 9.35416591 -1.1328125 7.921875 C-1.13168457 6.61831055 -1.13055664 5.31474609 -1.12939453 3.97167969 C-1 1 -1 1 0 0 Z " fill="#063450" transform="translate(123,167)"/>
<path d="M0 0 C1.60517097 0.08733576 3.20921662 0.19552224 4.8125 0.3125 C6.15248047 0.39951172 6.15248047 0.39951172 7.51953125 0.48828125 C10.30604 1.06313581 11.24135754 1.8206856 13 4 C12.67 4.99 12.34 5.98 12 7 C3.42857143 8.42857143 3.42857143 8.42857143 0 6 C0 4.02 0 2.04 0 0 Z " fill="#1682C9" transform="translate(20,192)"/>
<path d="M0 0 C1.2065625 0.0309375 1.2065625 0.0309375 2.4375 0.0625 C0.6385497 5.13884826 -2.05276455 9.69963611 -4.6875 14.375 C-5.15542969 15.21095703 -5.62335938 16.04691406 -6.10546875 16.90820312 C-7.2551259 18.96116233 -8.40753802 21.01252202 -9.5625 23.0625 C-9.8925 22.0725 -10.2225 21.0825 -10.5625 20.0625 C-10.995625 18.886875 -10.995625 18.886875 -11.4375 17.6875 C-11.5625 15.0625 -11.5625 15.0625 -9.25 12.25 C-6.5625 10.0625 -6.5625 10.0625 -4.5625 10.0625 C-4.50191406 9.42441406 -4.44132813 8.78632812 -4.37890625 8.12890625 C-4.29511719 7.30261719 -4.21132812 6.47632813 -4.125 5.625 C-4.04378906 4.80128906 -3.96257812 3.97757813 -3.87890625 3.12890625 C-3.4093501 0.06229881 -3.15462671 0.07694211 0 0 Z " fill="#87CAEE" transform="translate(148.5625,31.9375)"/>
<path d="M0 0 C0.99 0 1.98 0 3 0 C1.45173401 4.95757898 -0.51780938 9.63810401 -2.625 14.375 C-2.94984375 15.11105469 -3.2746875 15.84710938 -3.609375 16.60546875 C-4.40384503 18.40470969 -5.20158771 20.20250496 -6 22 C-6.92902735 18.55356337 -7.16551193 15.45465839 -7.1875 11.875 C-7.20167969 10.82054688 -7.21585937 9.76609375 -7.23046875 8.6796875 C-7 6 -7 6 -5 4 C-4.67 4.99 -4.34 5.98 -4 7 C-1.9375006 5.18777466 -1.9375006 5.18777466 0 3 C0 2.01 0 1.02 0 0 Z " fill="#65B4DE" transform="translate(135,56)"/>
<path d="M0 0 C-1.32 0.33 -2.64 0.66 -4 1 C-4 1.66 -4 2.32 -4 3 C-4.763125 3.20625 -5.52625 3.4125 -6.3125 3.625 C-9.82229103 5.42070704 -10.52599781 7.43136312 -12 11 C-13.65 10.01 -15.3 9.02 -17 8 C-15.87781656 4.07235796 -14.08147492 1.3760482 -10.86328125 -1.1953125 C-7.21754158 -2.76978288 -3.58885249 -1.25211076 0 0 Z " fill="#2489CB" transform="translate(30,13)"/>
<path d="M0 0 C0.99 0.495 0.99 0.495 2 1 C2.73075648 3.3140622 3.40138258 5.64828869 4 8 C4.66 7.01 5.32 6.02 6 5 C6.66 5 7.32 5 8 5 C7.67 9.29 7.34 13.58 7 18 C5 14 5 14 4 11 C3.67 18.92 3.34 26.84 3 35 C2.67 35 2.34 35 2 35 C1.97494385 34.33057373 1.9498877 33.66114746 1.92407227 32.97143555 C1.80652924 29.87666906 1.68453514 26.78209248 1.5625 23.6875 C1.52318359 22.63498047 1.48386719 21.58246094 1.44335938 20.49804688 C1.16901636 13.63947152 0.69319348 6.82901897 0 0 Z " fill="#024A79" transform="translate(119,157)"/>
<path d="M0 0 C0.33 0 0.66 0 1 0 C1.18175781 0.61746094 1.36351563 1.23492187 1.55078125 1.87109375 C3.0744515 7.00469045 4.6872937 12.06715111 6.546875 17.08984375 C7 19 7 19 6 22 C5.74605469 21.38511719 5.49210937 20.77023438 5.23046875 20.13671875 C4.88628906 19.32847656 4.54210937 18.52023438 4.1875 17.6875 C3.68283203 16.48673828 3.68283203 16.48673828 3.16796875 15.26171875 C1.97554124 12.6717106 1.97554124 12.6717106 -1 10 C-1.99 13.3 -2.98 16.6 -4 20 C-4.33 20 -4.66 20 -5 20 C-4.7201206 12.513226 -3.52350129 6.63729312 0 0 Z " fill="#2D8AC5" transform="translate(116,118)"/>
<path d="M0 0 C0.78375 0.495 1.5675 0.99 2.375 1.5 C1.385 2.985 1.385 2.985 0.375 4.5 C0.375 3.84 0.375 3.18 0.375 2.5 C-0.8625 2.685625 -2.1 2.87125 -3.375 3.0625 C-6.47052906 3.4535142 -8.62397435 3.40030769 -11.625 2.5 C-13.62463028 2.46154557 -15.62551633 2.45455719 -17.625 2.5 C-17.955 1.84 -18.285 1.18 -18.625 0.5 C-12.72130026 -2.64863986 -6.06019504 -2.50766691 0 0 Z " fill="#234B63" transform="translate(199.625,1.5)"/>
<path d="M0 0 C0.66 0.33 1.32 0.66 2 1 C2.4140625 3.06640625 2.4140625 3.06640625 2.625 5.5625 C2.69976562 6.38878906 2.77453125 7.21507812 2.8515625 8.06640625 C2.90054688 8.70449219 2.94953125 9.34257812 3 10 C2.34 10 1.68 10 1 10 C0.34 11.32 -0.32 12.64 -1 14 C-3.47342266 10.28986601 -3.38503486 8.38939738 -3 4 C-1.5 1.5625 -1.5 1.5625 0 0 Z " fill="#023953" transform="translate(124,152)"/>
<path d="M0 0 C-2.97 3.96 -2.97 3.96 -6 8 C-10 6 -10 6 -11 3 C-13.01508358 2.26676204 -13.01508358 2.26676204 -15 2 C-13.25364835 1.46706165 -11.50272348 0.94909337 -9.75 0.4375 C-8.77546875 0.14746094 -7.8009375 -0.14257812 -6.796875 -0.44140625 C-4 -1 -4 -1 0 0 Z " fill="#3F6173" transform="translate(178,116)"/>
<path d="M0 0 C0.99 0.33 1.98 0.66 3 1 C3.8125 3 3.8125 3 4 6 C2.62441066 8.87333525 0.95777468 11.48731467 -1 14 C-1.33 14 -1.66 14 -2 14 C-1.67 11.03 -1.34 8.06 -1 5 C-1.66 5 -2.32 5 -3 5 C-2 3 -2 3 0 0 Z " fill="#023A54" transform="translate(124,123)"/>
<path d="M0 0 C2.67927341 4.01891012 2.15601248 6.24161923 2 11 C2.66 11 3.32 11 4 11 C4 13.64 4 16.28 4 19 C3.34 18.34 2.68 17.68 2 17 C1.34 17.66 0.68 18.32 0 19 C0 12.73 0 6.46 0 0 Z " fill="#73BFE9" transform="translate(18,45)"/>
<path d="M0 0 C1.17776237 3.68050741 1.06978862 7.16162601 1 11 C1 14.6959107 1.83487616 17.50462849 3 21 C2.34 21.99 1.68 22.98 1 24 C-2.79881134 16.25042486 -2.73360093 8.20080279 0 0 Z " fill="#07446B" transform="translate(124,91)"/>
<path d="M0 0 C0.33 0 0.66 0 1 0 C1.33 1.98 1.66 3.96 2 6 C2.66 6 3.32 6 4 6 C3.3837013 10.00594152 1.29600041 12.72993881 -1 16 C-1.66 16.99 -2.32 17.98 -3 19 C-2.48446121 12.50149789 -1.53332291 6.33773468 0 0 Z " fill="#495F6F" transform="translate(133,151)"/>
<path d="M0 0 C0.33 0 0.66 0 1 0 C1.86478781 2.76791945 2.71711674 5.53865626 3.5625 8.3125 C3.80935547 9.09818359 4.05621094 9.88386719 4.31054688 10.69335938 C4.53935547 11.45068359 4.76816406 12.20800781 5.00390625 12.98828125 C5.21861572 13.68477783 5.4333252 14.38127441 5.65454102 15.09887695 C6 17 6 17 5 20 C4.16180842 18.37750059 3.3295884 16.75191503 2.5 15.125 C2.0359375 14.22007813 1.571875 13.31515625 1.09375 12.3828125 C0 10 0 10 0 8 C-0.66 7.67 -1.32 7.34 -2 7 C-1.34 7 -0.68 7 0 7 C0 4.69 0 2.38 0 0 Z " fill="#3987B5" transform="translate(121,102)"/>
<path d="M0 0 C0.66 0 1.32 0 2 0 C3.21386936 3.64160808 2.6674695 4.33165469 1.0625 7.6875 C0.68222656 8.49574219 0.30195313 9.30398437 -0.08984375 10.13671875 C-0.39019531 10.75160156 -0.69054687 11.36648437 -1 12 C-1.66 12 -2.32 12 -3 12 C-3 12.66 -3 13.32 -3 14 C-3.66 14 -4.32 14 -5 14 C-4.54636829 12.41531323 -4.08688548 10.83230076 -3.625 9.25 C-3.36976563 8.36828125 -3.11453125 7.4865625 -2.8515625 6.578125 C-2.0790066 4.23919428 -1.16374324 2.16557438 0 0 Z " fill="#2C5464" transform="translate(154,90)"/>
<path d="M0 0 C1.25955231 3.77865693 0.48087189 5.03411786 -0.9375 8.6875 C-1.31777344 9.68136719 -1.69804688 10.67523438 -2.08984375 11.69921875 C-2.39019531 12.45847656 -2.69054687 13.21773437 -3 14 C-3.66 13.67 -4.32 13.34 -5 13 C-4.835 11.906875 -4.67 10.81375 -4.5 9.6875 C-3.93281816 6.12474127 -3.93281816 6.12474127 -4 3 C-3 1 -3 1 0 0 Z " fill="#57ACDB" transform="translate(127,79)"/>
<path d="M0 0 C0.99 0.33 1.98 0.66 3 1 C3 5.62 3 10.24 3 15 C2.01 15.495 2.01 15.495 1 16 C-0.14077657 12.57767028 -0.09815117 9.91326783 -0.0625 6.3125 C-0.05347656 5.13300781 -0.04445313 3.95351563 -0.03515625 2.73828125 C-0.02355469 1.83464844 -0.01195313 0.93101563 0 0 Z " fill="#84C8EC" transform="translate(18,32)"/>
<path d="M0 0 C6.75 0.875 6.75 0.875 9 2 C9 2.66 9 3.32 9 4 C1.25 5.125 1.25 5.125 -1 4 C-0.67 2.68 -0.34 1.36 0 0 Z " fill="#1D82C7" transform="translate(23,195)"/>
<path d="M0 0 C0.99 0.33 1.98 0.66 3 1 C2.875 2.8125 2.875 2.8125 2 5 C-0.875 6.8125 -0.875 6.8125 -4 8 C-4.99 7.67 -5.98 7.34 -7 7 C-4.66666667 4.66666667 -2.33333333 2.33333333 0 0 Z " fill="#214A5F" transform="translate(160,112)"/>
<path d="M0 0 C0.33 0 0.66 0 1 0 C0.22095672 11.52164009 0.22095672 11.52164009 -2 17 C-2.66 16.34 -3.32 15.68 -4 15 C-3.43181818 9.43181818 -3.43181818 9.43181818 -2 8 C-2.020625 7.030625 -2.04125 6.06125 -2.0625 5.0625 C-2 2 -2 2 0 0 Z " fill="#5B788A" transform="translate(212,36)"/>
<path d="M0 0 C0.99 0.33 1.98 0.66 3 1 C3.34342449 2.33076989 3.67619874 3.66431979 4 5 C4.99 5.66 5.98 6.32 7 7 C7 8.32 7 9.64 7 11 C3.64189605 9.61043975 1.81413448 8.17473533 0 5 C-0.1875 2.25 -0.1875 2.25 0 0 Z " fill="#3C8DC2" transform="translate(13,186)"/>
<path d="M0 0 C1.32 0 2.64 0 4 0 C4.69848264 1.93356782 5.38344814 3.87202298 6.0625 5.8125 C6.44535156 6.89144531 6.82820313 7.97039062 7.22265625 9.08203125 C8 12 8 12 7 15 C6.74605469 14.38511719 6.49210937 13.77023438 6.23046875 13.13671875 C5.71419922 11.92435547 5.71419922 11.92435547 5.1875 10.6875 C4.85105469 9.88699219 4.51460938 9.08648437 4.16796875 8.26171875 C3.12753815 5.95756856 3.12753815 5.95756856 1.36328125 4.39453125 C0 3 0 3 0 0 Z " fill="#2773A6" transform="translate(115,125)"/>
<path d="M0 0 C0.66 0.99 1.32 1.98 2 3 C1.21654285 4.17219543 0.42297164 5.33763668 -0.375 6.5 C-0.81585938 7.1496875 -1.25671875 7.799375 -1.7109375 8.46875 C-2.13632813 8.9740625 -2.56171875 9.479375 -3 10 C-3.66 10 -4.32 10 -5 10 C-5 7.69 -5 5.38 -5 3 C-4.360625 2.690625 -3.72125 2.38125 -3.0625 2.0625 C-1.06389179 1.1654837 -1.06389179 1.1654837 0 0 Z " fill="#8DCCEA" transform="translate(157,20)"/>
<path d="M0 0 C-4.95 2.97 -4.95 2.97 -10 6 C-10.66 5.34 -11.32 4.68 -12 4 C-11.375 2.0625 -11.375 2.0625 -10 0 C-6.04913313 -1.11654933 -4.04257012 -1.01064253 0 0 Z " fill="#2C5367" transform="translate(153,147)"/>
<path d="M0 0 C1.32 1.32 2.64 2.64 4 4 C3.34 6.31 2.68 8.62 2 11 C0.68 10.01 -0.64 9.02 -2 8 C-1.34 5.36 -0.68 2.72 0 0 Z " fill="#023A57" transform="translate(116,133)"/>
<path d="M0 0 C0.66 0 1.32 0 2 0 C2.36637589 6.35051546 2.36637589 6.35051546 0.625 9.4375 C-1 11 -1 11 -3 11 C-2.44894091 7.0507432 -1.61064629 3.65079826 0 0 Z " fill="#264B61" transform="translate(147,107)"/>
<path d="M0 0 C0.33 0 0.66 0 1 0 C1.28875 1.175625 1.5775 2.35125 1.875 3.5625 C2.55827025 6.33982152 3.32216517 9.0173637 4.1875 11.75 C4.98794645 14.95178578 4.92221289 15.99136219 4 19 C3.51801537 17.75108386 3.03954323 16.50081192 2.5625 15.25 C2.29566406 14.55390625 2.02882813 13.8578125 1.75390625 13.140625 C0.1632243 8.62407728 -0.0926001 4.81520531 0 0 Z " fill="#207BB7" transform="translate(112,134)"/>
<path d="M0 0 C0.33 1.32 0.66 2.64 1 4 C1.66 4 2.32 4 3 4 C3.33 3.34 3.66 2.68 4 2 C3.67 3.65 3.34 5.3 3 7 C2.01 7.33 1.02 7.66 0 8 C0 8.99 0 9.98 0 11 C-0.66 11 -1.32 11 -2 11 C-1.34 7.37 -0.68 3.74 0 0 Z " fill="#295468" transform="translate(137,136)"/>
<path d="M0 0 C1.25 1.5625 1.25 1.5625 2 4 C0.93237266 6.57001015 -0.46544943 8.6530403 -2 11 C-2.89130413 8.3260876 -3.47731534 5.76276177 -4 3 C-2.68 2.01 -1.36 1.02 0 0 Z " fill="#74BBE0" transform="translate(141,44)"/>
<path d="M0 0 C0.99 0 1.98 0 3 0 C2.34938905 1.67299959 1.67966676 3.33859237 1 5 C0.71125 5.7425 0.4225 6.485 0.125 7.25 C-1 9 -1 9 -3.125 9.75 C-4.053125 9.87375 -4.053125 9.87375 -5 10 C-5 9.01 -5 8.02 -5 7 C-3.68 6.67 -2.36 6.34 -1 6 C-0.67 4.02 -0.34 2.04 0 0 Z " fill="#355A69" transform="translate(184,99)"/>
<path d="M0 0 C0.66 0 1.32 0 2 0 C1.67 4.29 1.34 8.58 1 13 C-1 9 -1 9 -1 5 C-1.66 4.67 -2.32 4.34 -3 4 C-1.625 2 -1.625 2 0 0 Z " fill="#315B6F" transform="translate(125,162)"/>
<path d="M0 0 C0.66 0.33 1.32 0.66 2 1 C0.55746343 4.36591866 -1.33264727 6.51047079 -4 9 C-4.33 7.02 -4.66 5.04 -5 3 C-4.360625 2.87625 -3.72125 2.7525 -3.0625 2.625 C-2.0415625 2.315625 -2.0415625 2.315625 -1 2 C-0.67 1.34 -0.34 0.68 0 0 Z " fill="#355A6E" transform="translate(161,134)"/>
<path d="M0 0 C0.66 0.33 1.32 0.66 2 1 C2 2.32 2 3.64 2 5 C1.34 5 0.68 5 0 5 C-0.33 6.98 -0.66 8.96 -1 11 C-1.66 10.34 -2.32 9.68 -3 9 C-2.67582137 5.19090105 -2.14418558 3.21627837 0 0 Z " fill="#3E9BD5" transform="translate(119,104)"/>
<path d="M0 0 C0.33 0 0.66 0 1 0 C1.08159574 4.16138263 0.98248524 7.9472484 0 12 C-0.99 12 -1.98 12 -3 12 C-2.68950274 10.56206608 -2.3765224 9.1246682 -2.0625 7.6875 C-1.88847656 6.88699219 -1.71445313 6.08648437 -1.53515625 5.26171875 C-1 3 -1 3 0 0 Z " fill="#355668" transform="translate(141,124)"/>
<path d="M0 0 C0.99 0.33 1.98 0.66 3 1 C1.8141763 4.37503669 0.72426311 6.64722731 -2 9 C-2.125 5.625 -2.125 5.625 -2 2 C-1.34 1.34 -0.68 0.68 0 0 Z " fill="#2F5A70" transform="translate(164,53)"/>
<path d="M0 0 C3.44216672 2.6598561 3.99504674 5.90288286 5 10 C4.01 10.99 3.02 11.98 2 13 C2 12.01 2 11.02 2 10 C1.67 9.21625 1.34 8.4325 1 7.625 C-0.04707861 4.87641865 -0.16636171 2.91132993 0 0 Z " fill="#05436A" transform="translate(117,129)"/>
<path d="M0 0 C1.65 0 3.3 0 5 0 C4.67 0.99 4.34 1.98 4 3 C3.34 3 2.68 3 2 3 C2 3.66 2 4.32 2 5 C0.68 5.33 -0.64 5.66 -2 6 C-1.34 4.02 -0.68 2.04 0 0 Z " fill="#033851" transform="translate(155,121)"/>
<path d="M0 0 C0.66 0 1.32 0 2 0 C2.66 1.98 3.32 3.96 4 6 C2.02 6.66 0.04 7.32 -2 8 C-1.34 5.36 -0.68 2.72 0 0 Z " fill="#05466E" transform="translate(119,110)"/>
<path d="M0 0 C0.99 0 1.98 0 3 0 C2.01 3.3 1.02 6.6 0 10 C-0.66 9.34 -1.32 8.68 -2 8 C-2 6.68 -2 5.36 -2 4 C-1.34 4 -0.68 4 0 4 C0 2.68 0 1.36 0 0 Z " fill="#456778" transform="translate(205,57)"/>
<path d="M0 0 C3 1 3 1 4.25 2.875 C5 5 5 5 4 8 C2.0625 7.3125 2.0625 7.3125 0 6 C-0.8125 3.4375 -0.8125 3.4375 -1 1 C-0.67 0.67 -0.34 0.34 0 0 Z " fill="#033752" transform="translate(129,121)"/>
<path d="M0 0 C0.33 0.99 0.66 1.98 1 3 C1.33 2.34 1.66 1.68 2 1 C2.66 1 3.32 1 4 1 C3.67 3.31 3.34 5.62 3 8 C1.35 7.01 -0.3 6.02 -2 5 C-1.34 3.35 -0.68 1.7 0 0 Z " fill="#3791CE" transform="translate(15,16)"/>
<path d="M0 0 C0.99 0.33 1.98 0.66 3 1 C2.67 1.66 2.34 2.32 2 3 C2.66 3.33 3.32 3.66 4 4 C3.01 4.66 2.02 5.32 1 6 C1 5.34 1 4.68 1 4 C0.34 4 -0.32 4 -1 4 C-1.33 4.99 -1.66 5.98 -2 7 C-2.33 6.34 -2.66 5.68 -3 5 C-1.5625 2.375 -1.5625 2.375 0 0 Z " fill="#2780BA" transform="translate(18,13)"/>
<path d="M0 0 C2 2 2 2 2.1953125 4.1640625 C2.16050781 5.38222656 2.16050781 5.38222656 2.125 6.625 C2.10695313 7.44226563 2.08890625 8.25953125 2.0703125 9.1015625 C2.04710938 9.72804688 2.02390625 10.35453125 2 11 C1.34 10.67 0.68 10.34 0 10 C-0.89093449 6.35526801 -1.23666047 3.57257469 0 0 Z " fill="#023754" transform="translate(125,91)"/>
<path d="M0 0 C0.66 1.32 1.32 2.64 2 4 C0.7260411 6.03833424 -0.61061923 8.03852126 -2 10 C-2.66 10 -3.32 10 -4 10 C-2.8905928 6.51329166 -1.73662334 3.22515763 0 0 Z " fill="#456678" transform="translate(160,77)"/>
<path d="M0 0 C0.66 0.33 1.32 0.66 2 1 C2 1.99 2 2.98 2 4 C1.01 4 0.02 4 -1 4 C-1.33 4.99 -1.66 5.98 -2 7 C-2.66 7 -3.32 7 -4 7 C-2.92598892 4.08482708 -2.22189824 2.22189824 0 0 Z M3 1 C3.66 1.33 4.32 1.66 5 2 C4.01 2 3.02 2 2 2 C2.33 1.67 2.66 1.34 3 1 Z " fill="#79CBF3" transform="translate(22,16)"/>
<path d="M0 0 C0.66 0.33 1.32 0.66 2 1 C0.68 3.31 -0.64 5.62 -2 8 C-2.66 8 -3.32 8 -4 8 C-4.33 7.01 -4.66 6.02 -5 5 C-4.01 4.67 -3.02 4.34 -2 4 C-2 3.01 -2 2.02 -2 1 C-1.34 0.67 -0.68 0.34 0 0 Z " fill="#81C2E7" transform="translate(146,38)"/>
<path d="M0 0 C0.99 0.33 1.98 0.66 3 1 C3.33 3.97 3.66 6.94 4 10 C2 8.9375 2 8.9375 0 7 C-0.25 3.3125 -0.25 3.3125 0 0 Z " fill="#2B89C8" transform="translate(12,21)"/>
<path d="M0 0 C0.66 0 1.32 0 2 0 C2 1.98 2 3.96 2 6 C0 6 -2 6 -4 6 C-2.84826645 3.53199953 -1.95216435 1.95216435 0 0 Z " fill="#05354F" transform="translate(198,17)"/>
<path d="M0 0 C0.66 0 1.32 0 2 0 C2.33 1.65 2.66 3.3 3 5 C2.01 5 1.02 5 0 5 C-0.33 5.66 -0.66 6.32 -1 7 C-1.625 5.1875 -1.625 5.1875 -2 3 C-1.34 2.01 -0.68 1.02 0 0 Z " fill="#033954" transform="translate(128,135)"/>
<path d="M0 0 C0.66 0.33 1.32 0.66 2 1 C1.34 3.97 0.68 6.94 0 10 C-2 6 -2 6 -1.125 2.75 C-0.75375 1.8425 -0.3825 0.935 0 0 Z " fill="#365D6E" transform="translate(137,111)"/>
<path d="M0 0 C0.66 0 1.32 0 2 0 C3.0326802 2.78823655 3.04509293 3.8677274 2.0625 6.75 C1.711875 7.4925 1.36125 8.235 1 9 C0.01 8.34 -0.98 7.68 -2 7 C-1.34 7 -0.68 7 0 7 C0 4.69 0 2.38 0 0 Z " fill="#305369" transform="translate(147,83)"/>
<path d="M0 0 C0.33 0 0.66 0 1 0 C1 1.65 1 3.3 1 5 C1.66 5 2.32 5 3 5 C3 6.65 3 8.3 3 10 C2.01 10.495 2.01 10.495 1 11 C-0.28317892 7.15046324 -0.06643637 4.05261865 0 0 Z " fill="#485E6C" transform="translate(122,200)"/>
<path d="M0 0 C0.66 0.66 1.32 1.32 2 2 C1.01 4.64 0.02 7.28 -1 10 C-1.66 9.67 -2.32 9.34 -3 9 C-2.01 6.03 -1.02 3.06 0 0 Z " fill="#54A6D3" transform="translate(125,83)"/>
<path d="M0 0 C1.41377341 2.63904371 2.37240135 5.07120629 3 8 C1.68 7.67 0.36 7.34 -1 7 C-0.67 4.69 -0.34 2.38 0 0 Z " fill="#6E7E8A" transform="translate(126,217)"/>
<path d="M0 0 C0.33 0.99 0.66 1.98 1 3 C-2.3 2.34 -5.6 1.68 -9 1 C-9 0.67 -9 0.34 -9 0 C-3.375 -1.125 -3.375 -1.125 0 0 Z " fill="#0C84D2" transform="translate(32,194)"/>
<path d="M0 0 C1.5625 1.125 1.5625 1.125 3 3 C2.6875 6.1875 2.6875 6.1875 2 9 C0.05276405 6.07914607 -0.55175352 4.40667322 -1 1 C-0.67 0.67 -0.34 0.34 0 0 Z " fill="#2C556B" transform="translate(131,126)"/>
<path d="M0 0 C2 2 2 2 3 4 C1.68 4.99 0.36 5.98 -1 7 C-1.66 6.67 -2.32 6.34 -3 6 C-1.125 1.125 -1.125 1.125 0 0 Z " fill="#3D6379" transform="translate(185,32)"/>
</svg>
